# 由 tools/gen_3d_models.py 程序化生成，请勿手改
# Generated by tools/gen_3d_models.py - do not edit by hand
# 顶点 Y 朝上；InnoVault 导入时自动翻成 Y 朝下（ObjAxisConvention.YUpToYDown）
# Vertices are Y-up; InnoVault flips to Y-down on import.
mtllib MechanicalCompanion.mtl

# ---- 184 个顶点 / 184 positions ----
v -0.170000 1.420000 0.170000
v 0.170000 1.420000 0.170000
v 0.170000 1.740000 0.170000
v -0.170000 1.740000 0.170000
v 0.170000 1.420000 -0.170000
v -0.170000 1.420000 -0.170000
v -0.170000 1.740000 -0.170000
v 0.170000 1.740000 -0.170000
v -0.180000 1.600000 0.110000
v 0.180000 1.600000 0.110000
v 0.180000 1.800000 0.110000
v -0.180000 1.800000 0.110000
v 0.180000 1.600000 -0.210000
v -0.180000 1.600000 -0.210000
v -0.180000 1.800000 -0.210000
v 0.180000 1.800000 -0.210000
v -0.210000 1.520000 0.020000
v -0.170000 1.520000 0.020000
v -0.170000 1.680000 0.020000
v -0.210000 1.680000 0.020000
v -0.170000 1.520000 -0.060000
v -0.210000 1.520000 -0.060000
v -0.210000 1.680000 -0.060000
v -0.170000 1.680000 -0.060000
v 0.170000 1.520000 0.020000
v 0.210000 1.520000 0.020000
v 0.210000 1.680000 0.020000
v 0.170000 1.680000 0.020000
v 0.210000 1.520000 -0.060000
v 0.170000 1.520000 -0.060000
v 0.170000 1.680000 -0.060000
v 0.210000 1.680000 -0.060000
v -0.130000 1.520000 0.190000
v 0.130000 1.520000 0.190000
v 0.130000 1.600000 0.190000
v -0.130000 1.600000 0.190000
v 0.130000 1.520000 0.130000
v -0.130000 1.520000 0.130000
v -0.130000 1.600000 0.130000
v 0.130000 1.600000 0.130000
v -0.050000 1.360000 0.050000
v 0.050000 1.360000 0.050000
v 0.050000 1.440000 0.050000
v -0.050000 1.440000 0.050000
v 0.050000 1.360000 -0.050000
v -0.050000 1.360000 -0.050000
v -0.050000 1.440000 -0.050000
v 0.050000 1.440000 -0.050000
v -0.200000 0.980000 0.110000
v 0.200000 0.980000 0.110000
v 0.200000 1.380000 0.110000
v -0.200000 1.380000 0.110000
v 0.200000 0.980000 -0.110000
v -0.200000 0.980000 -0.110000
v -0.200000 1.380000 -0.110000
v 0.200000 1.380000 -0.110000
v -0.240000 1.290000 0.120000
v 0.240000 1.290000 0.120000
v 0.240000 1.390000 0.120000
v -0.240000 1.390000 0.120000
v 0.240000 1.290000 -0.120000
v -0.240000 1.290000 -0.120000
v -0.240000 1.390000 -0.120000
v 0.240000 1.390000 -0.120000
v -0.060000 1.120000 0.140000
v 0.060000 1.120000 0.140000
v 0.060000 1.240000 0.140000
v -0.060000 1.240000 0.140000
v 0.060000 1.120000 0.100000
v -0.060000 1.120000 0.100000
v -0.060000 1.240000 0.100000
v 0.060000 1.240000 0.100000
v -0.150000 0.900000 0.090000
v 0.150000 0.900000 0.090000
v 0.150000 1.020000 0.090000
v -0.150000 1.020000 0.090000
v 0.150000 0.900000 -0.090000
v -0.150000 0.900000 -0.090000
v -0.150000 1.020000 -0.090000
v 0.150000 1.020000 -0.090000
v -0.210000 0.620000 0.130000
v 0.210000 0.620000 0.130000
v 0.210000 0.980000 0.130000
v -0.210000 0.980000 0.130000
v 0.210000 0.620000 -0.130000
v -0.210000 0.620000 -0.130000
v -0.210000 0.980000 -0.130000
v 0.210000 0.980000 -0.130000
v -0.330000 1.000000 0.060000
v -0.210000 1.000000 0.060000
v -0.210000 1.320000 0.060000
v -0.330000 1.320000 0.060000
v -0.210000 1.000000 -0.060000
v -0.330000 1.000000 -0.060000
v -0.330000 1.320000 -0.060000
v -0.210000 1.320000 -0.060000
v -0.320000 0.760000 0.050000
v -0.220000 0.760000 0.050000
v -0.220000 1.040000 0.050000
v -0.320000 1.040000 0.050000
v -0.220000 0.760000 -0.050000
v -0.320000 0.760000 -0.050000
v -0.320000 1.040000 -0.050000
v -0.220000 1.040000 -0.050000
v -0.320000 0.690000 0.050000
v -0.220000 0.690000 0.050000
v -0.220000 0.790000 0.050000
v -0.320000 0.790000 0.050000
v -0.220000 0.690000 -0.050000
v -0.320000 0.690000 -0.050000
v -0.320000 0.790000 -0.050000
v -0.220000 0.790000 -0.050000
v 0.210000 1.000000 0.060000
v 0.330000 1.000000 0.060000
v 0.330000 1.320000 0.060000
v 0.210000 1.320000 0.060000
v 0.330000 1.000000 -0.060000
v 0.210000 1.000000 -0.060000
v 0.210000 1.320000 -0.060000
v 0.330000 1.320000 -0.060000
v 0.220000 0.760000 0.050000
v 0.320000 0.760000 0.050000
v 0.320000 1.040000 0.050000
v 0.220000 1.040000 0.050000
v 0.320000 0.760000 -0.050000
v 0.220000 0.760000 -0.050000
v 0.220000 1.040000 -0.050000
v 0.320000 1.040000 -0.050000
v 0.220000 0.690000 0.050000
v 0.320000 0.690000 0.050000
v 0.320000 0.790000 0.050000
v 0.220000 0.790000 0.050000
v 0.320000 0.690000 -0.050000
v 0.220000 0.690000 -0.050000
v 0.220000 0.790000 -0.050000
v 0.320000 0.790000 -0.050000
v -0.180000 0.380000 0.080000
v -0.020000 0.380000 0.080000
v -0.020000 0.740000 0.080000
v -0.180000 0.740000 0.080000
v -0.020000 0.380000 -0.080000
v -0.180000 0.380000 -0.080000
v -0.180000 0.740000 -0.080000
v -0.020000 0.740000 -0.080000
v -0.170000 0.080000 0.070000
v -0.030000 0.080000 0.070000
v -0.030000 0.400000 0.070000
v -0.170000 0.400000 0.070000
v -0.030000 0.080000 -0.070000
v -0.170000 0.080000 -0.070000
v -0.170000 0.400000 -0.070000
v -0.030000 0.400000 -0.070000
v -0.180000 0.000000 0.140000
v -0.020000 0.000000 0.140000
v -0.020000 0.080000 0.140000
v -0.180000 0.080000 0.140000
v -0.020000 0.000000 -0.080000
v -0.180000 0.000000 -0.080000
v -0.180000 0.080000 -0.080000
v -0.020000 0.080000 -0.080000
v 0.020000 0.380000 0.080000
v 0.180000 0.380000 0.080000
v 0.180000 0.740000 0.080000
v 0.020000 0.740000 0.080000
v 0.180000 0.380000 -0.080000
v 0.020000 0.380000 -0.080000
v 0.020000 0.740000 -0.080000
v 0.180000 0.740000 -0.080000
v 0.030000 0.080000 0.070000
v 0.170000 0.080000 0.070000
v 0.170000 0.400000 0.070000
v 0.030000 0.400000 0.070000
v 0.170000 0.080000 -0.070000
v 0.030000 0.080000 -0.070000
v 0.030000 0.400000 -0.070000
v 0.170000 0.400000 -0.070000
v 0.020000 0.000000 0.140000
v 0.180000 0.000000 0.140000
v 0.180000 0.080000 0.140000
v 0.020000 0.080000 0.140000
v 0.180000 0.000000 -0.080000
v 0.020000 0.000000 -0.080000
v 0.020000 0.080000 -0.080000
v 0.180000 0.080000 -0.080000

vt 0.000000 1.000000
vt 0.125000 1.000000
vt 0.125000 0.916667
vt 0.000000 0.916667
vt 0.250000 1.000000
vt 0.250000 0.916667
vt 0.125000 0.833333
vt 0.000000 0.833333
vt 0.250000 0.833333
vt 0.000000 0.833333
vt 0.125000 0.833333
vt 0.125000 0.750000
vt 0.000000 0.750000
vt 0.250000 0.833333
vt 0.250000 0.750000
vt 0.375000 1.000000
vt 0.375000 0.916667
vt 0.500000 1.000000
vt 0.500000 0.916667
vt 0.375000 0.833333
vt 0.500000 0.833333
vt 0.375000 0.833333
vt 0.375000 0.750000
vt 0.500000 0.833333
vt 0.500000 0.750000
vt 0.625000 1.000000
vt 0.625000 0.916667
vt 0.750000 1.000000
vt 0.750000 0.916667
vt 0.625000 0.833333
vt 0.750000 0.833333
vt 0.625000 0.833333
vt 0.625000 0.750000
vt 0.750000 0.833333
vt 0.750000 0.750000
vt 0.875000 1.000000
vt 0.875000 0.916667
vt 1.000000 1.000000
vt 1.000000 0.916667
vt 0.875000 0.833333
vt 1.000000 0.833333
vt 0.875000 0.833333
vt 0.875000 0.750000
vt 1.000000 0.833333
vt 1.000000 0.750000
vt 0.125000 0.666667
vt 0.000000 0.666667
vt 0.250000 0.666667
vt 0.125000 0.583333
vt 0.000000 0.583333
vt 0.250000 0.583333
vt 0.000000 0.583333
vt 0.125000 0.583333
vt 0.125000 0.500000
vt 0.000000 0.500000
vt 0.250000 0.583333
vt 0.250000 0.500000
vt 0.375000 0.666667
vt 0.500000 0.666667
vt 0.375000 0.583333
vt 0.500000 0.583333
vt 0.375000 0.583333
vt 0.375000 0.500000
vt 0.500000 0.583333
vt 0.500000 0.500000
vt 0.625000 0.666667
vt 0.750000 0.666667
vt 0.625000 0.583333
vt 0.750000 0.583333
vt 0.625000 0.583333
vt 0.625000 0.500000
vt 0.750000 0.583333
vt 0.750000 0.500000
vt 0.875000 0.666667
vt 1.000000 0.666667
vt 0.875000 0.583333
vt 1.000000 0.583333
vt 0.875000 0.583333
vt 0.875000 0.500000
vt 1.000000 0.583333
vt 1.000000 0.500000
vt 0.125000 0.416667
vt 0.000000 0.416667
vt 0.250000 0.416667
vt 0.125000 0.333333
vt 0.000000 0.333333
vt 0.250000 0.333333
vt 0.125000 0.250000
vt 0.000000 0.250000
vt 0.250000 0.250000
vt 0.375000 0.416667
vt 0.500000 0.416667
vt 0.375000 0.333333
vt 0.500000 0.333333
vt 0.375000 0.250000
vt 0.500000 0.250000
vt 0.625000 0.416667
vt 0.750000 0.416667
vt 0.625000 0.333333
vt 0.750000 0.333333
vt 0.625000 0.250000
vt 0.750000 0.250000
vt 0.875000 0.416667
vt 1.000000 0.416667
vt 0.875000 0.333333
vt 1.000000 0.333333
vt 0.875000 0.250000
vt 1.000000 0.250000
vt 0.000000 0.250000
vt 0.125000 0.250000
vt 0.125000 0.166667
vt 0.000000 0.166667
vt 0.250000 0.250000
vt 0.250000 0.166667
vt 0.125000 0.083333
vt 0.000000 0.083333
vt 0.250000 0.083333
vt 0.000000 0.083333
vt 0.125000 0.083333
vt 0.125000 0.000000
vt 0.000000 0.000000
vt 0.250000 0.083333
vt 0.250000 0.000000
vt 0.375000 0.250000
vt 0.375000 0.166667
vt 0.500000 0.250000
vt 0.500000 0.166667
vt 0.375000 0.083333
vt 0.500000 0.083333
vt 0.375000 0.083333
vt 0.375000 0.000000
vt 0.500000 0.083333
vt 0.500000 0.000000
vt 0.625000 0.250000
vt 0.625000 0.166667
vt 0.750000 0.250000
vt 0.750000 0.166667
vt 0.625000 0.083333
vt 0.750000 0.083333
vt 0.625000 0.083333
vt 0.625000 0.000000
vt 0.750000 0.083333
vt 0.750000 0.000000
vt 0.875000 0.250000
vt 0.875000 0.166667
vt 1.000000 0.250000
vt 1.000000 0.166667
vt 0.875000 0.083333
vt 1.000000 0.083333
vt 0.875000 0.083333
vt 0.875000 0.000000
vt 1.000000 0.083333
vt 1.000000 0.000000

vn 0.000000 0.000000 1.000000
vn 0.000000 0.000000 -1.000000
vn 1.000000 0.000000 0.000000
vn -1.000000 0.000000 0.000000
vn 0.000000 1.000000 0.000000
vn 0.000000 -1.000000 0.000000

g head
usemtl WL_Steel
f 1/1/1 2/2/1 3/3/1
f 1/1/1 3/3/1 4/4/1
f 5/2/2 6/5/2 7/6/2
f 5/2/2 7/6/2 8/3/2
f 2/4/3 5/3/3 8/7/3
f 2/4/3 8/7/3 3/8/3
f 6/3/4 1/6/4 4/9/4
f 6/3/4 4/9/4 7/7/4
f 7/10/5 4/11/5 3/12/5
f 7/10/5 3/12/5 8/13/5
f 1/11/6 6/14/6 5/15/6
f 1/11/6 5/15/6 2/12/6
usemtl WL_GoldTrim
f 9/5/1 10/16/1 11/17/1
f 9/5/1 11/17/1 12/6/1
f 13/16/2 14/18/2 15/19/2
f 13/16/2 15/19/2 16/17/2
f 10/6/3 13/17/3 16/20/3
f 10/6/3 16/20/3 11/9/3
f 14/17/4 9/19/4 12/21/4
f 14/17/4 12/21/4 15/20/4
f 15/14/5 12/22/5 11/23/5
f 15/14/5 11/23/5 16/15/5
f 9/22/6 14/24/6 13/25/6
f 9/22/6 13/25/6 10/23/6
f 17/18/1 18/26/1 19/27/1
f 17/18/1 19/27/1 20/19/1
f 21/26/2 22/28/2 23/29/2
f 21/26/2 23/29/2 24/27/2
f 18/19/3 21/27/3 24/30/3
f 18/19/3 24/30/3 19/21/3
f 22/27/4 17/29/4 20/31/4
f 22/27/4 20/31/4 23/30/4
f 23/24/5 20/32/5 19/33/5
f 23/24/5 19/33/5 24/25/5
f 17/32/6 22/34/6 21/35/6
f 17/32/6 21/35/6 18/33/6
f 25/18/1 26/26/1 27/27/1
f 25/18/1 27/27/1 28/19/1
f 29/26/2 30/28/2 31/29/2
f 29/26/2 31/29/2 32/27/2
f 26/19/3 29/27/3 32/30/3
f 26/19/3 32/30/3 27/21/3
f 30/27/4 25/29/4 28/31/4
f 30/27/4 28/31/4 31/30/4
f 31/24/5 28/32/5 27/33/5
f 31/24/5 27/33/5 32/25/5
f 25/32/6 30/34/6 29/35/6
f 25/32/6 29/35/6 26/33/6
usemtl WL_Glow
f 33/28/1 34/36/1 35/37/1
f 33/28/1 35/37/1 36/29/1
f 37/36/2 38/38/2 39/39/2
f 37/36/2 39/39/2 40/37/2
f 34/29/3 37/37/3 40/40/3
f 34/29/3 40/40/3 35/31/3
f 38/37/4 33/39/4 36/41/4
f 38/37/4 36/41/4 39/40/4
f 39/34/5 36/42/5 35/43/5
f 39/34/5 35/43/5 40/35/5
f 33/42/6 38/44/6 37/45/6
f 33/42/6 37/45/6 34/43/6
usemtl WL_DarkSteel
f 41/13/1 42/12/1 43/46/1
f 41/13/1 43/46/1 44/47/1
f 45/12/2 46/15/2 47/48/2
f 45/12/2 47/48/2 48/46/2
f 42/47/3 45/46/3 48/49/3
f 42/47/3 48/49/3 43/50/3
f 46/46/4 41/48/4 44/51/4
f 46/46/4 44/51/4 47/49/4
f 47/52/5 44/53/5 43/54/5
f 47/52/5 43/54/5 48/55/5
f 41/53/6 46/56/6 45/57/6
f 41/53/6 45/57/6 42/54/6
g torso
usemtl WL_Robe
f 49/15/1 50/23/1 51/58/1
f 49/15/1 51/58/1 52/48/1
f 53/23/2 54/25/2 55/59/2
f 53/23/2 55/59/2 56/58/2
f 50/48/3 53/58/3 56/60/3
f 50/48/3 56/60/3 51/51/3
f 54/58/4 49/59/4 52/61/4
f 54/58/4 52/61/4 55/60/4
f 55/56/5 52/62/5 51/63/5
f 55/56/5 51/63/5 56/57/5
f 49/62/6 54/64/6 53/65/6
f 49/62/6 53/65/6 50/63/6
usemtl WL_Steel
f 57/25/1 58/33/1 59/66/1
f 57/25/1 59/66/1 60/59/1
f 61/33/2 62/35/2 63/67/2
f 61/33/2 63/67/2 64/66/2
f 58/59/3 61/66/3 64/68/3
f 58/59/3 64/68/3 59/61/3
f 62/66/4 57/67/4 60/69/4
f 62/66/4 60/69/4 63/68/4
f 63/64/5 60/70/5 59/71/5
f 63/64/5 59/71/5 64/65/5
f 57/70/6 62/72/6 61/73/6
f 57/70/6 61/73/6 58/71/6
usemtl WL_Glow
f 65/35/1 66/43/1 67/74/1
f 65/35/1 67/74/1 68/67/1
f 69/43/2 70/45/2 71/75/2
f 69/43/2 71/75/2 72/74/2
f 66/67/3 69/74/3 72/76/3
f 66/67/3 72/76/3 67/69/3
f 70/74/4 65/75/4 68/77/4
f 70/74/4 68/77/4 71/76/4
f 71/72/5 68/78/5 67/79/5
f 71/72/5 67/79/5 72/73/5
f 65/78/6 70/80/6 69/81/6
f 65/78/6 69/81/6 66/79/6
usemtl WL_GoldTrim
f 73/55/1 74/54/1 75/82/1
f 73/55/1 75/82/1 76/83/1
f 77/54/2 78/57/2 79/84/2
f 77/54/2 79/84/2 80/82/2
f 74/83/3 77/82/3 80/85/3
f 74/83/3 80/85/3 75/86/3
f 78/82/4 73/84/4 76/87/4
f 78/82/4 76/87/4 79/85/4
f 79/86/5 76/85/5 75/88/5
f 79/86/5 75/88/5 80/89/5
f 73/85/6 78/87/6 77/90/6
f 73/85/6 77/90/6 74/88/6
usemtl WL_Robe
f 81/57/1 82/63/1 83/91/1
f 81/57/1 83/91/1 84/84/1
f 85/63/2 86/65/2 87/92/2
f 85/63/2 87/92/2 88/91/2
f 82/84/3 85/91/3 88/93/3
f 82/84/3 88/93/3 83/87/3
f 86/91/4 81/92/4 84/94/4
f 86/91/4 84/94/4 87/93/4
f 87/87/5 84/93/5 83/95/5
f 87/87/5 83/95/5 88/90/5
f 81/93/6 86/94/6 85/96/6
f 81/93/6 85/96/6 82/95/6
g arm_l
f 89/65/1 90/71/1 91/97/1
f 89/65/1 91/97/1 92/92/1
f 93/71/2 94/73/2 95/98/2
f 93/71/2 95/98/2 96/97/2
f 90/92/3 93/97/3 96/99/3
f 90/92/3 96/99/3 91/94/3
f 94/97/4 89/98/4 92/100/4
f 94/97/4 92/100/4 95/99/4
f 95/94/5 92/99/5 91/101/5
f 95/94/5 91/101/5 96/96/5
f 89/99/6 94/100/6 93/102/6
f 89/99/6 93/102/6 90/101/6
f 97/73/1 98/79/1 99/103/1
f 97/73/1 99/103/1 100/98/1
f 101/79/2 102/81/2 103/104/2
f 101/79/2 103/104/2 104/103/2
f 98/98/3 101/103/3 104/105/3
f 98/98/3 104/105/3 99/100/3
f 102/103/4 97/104/4 100/106/4
f 102/103/4 100/106/4 103/105/4
f 103/100/5 100/105/5 99/107/5
f 103/100/5 99/107/5 104/102/5
f 97/105/6 102/106/6 101/108/6
f 97/105/6 101/108/6 98/107/6
usemtl WL_Steel
f 105/109/1 106/110/1 107/111/1
f 105/109/1 107/111/1 108/112/1
f 109/110/2 110/113/2 111/114/2
f 109/110/2 111/114/2 112/111/2
f 106/112/3 109/111/3 112/115/3
f 106/112/3 112/115/3 107/116/3
f 110/111/4 105/114/4 108/117/4
f 110/111/4 108/117/4 111/115/4
f 111/118/5 108/119/5 107/120/5
f 111/118/5 107/120/5 112/121/5
f 105/119/6 110/122/6 109/123/6
f 105/119/6 109/123/6 106/120/6
g arm_r
usemtl WL_Robe
f 113/65/1 114/71/1 115/97/1
f 113/65/1 115/97/1 116/92/1
f 117/71/2 118/73/2 119/98/2
f 117/71/2 119/98/2 120/97/2
f 114/92/3 117/97/3 120/99/3
f 114/92/3 120/99/3 115/94/3
f 118/97/4 113/98/4 116/100/4
f 118/97/4 116/100/4 119/99/4
f 119/94/5 116/99/5 115/101/5
f 119/94/5 115/101/5 120/96/5
f 113/99/6 118/100/6 117/102/6
f 113/99/6 117/102/6 114/101/6
f 121/73/1 122/79/1 123/103/1
f 121/73/1 123/103/1 124/98/1
f 125/79/2 126/81/2 127/104/2
f 125/79/2 127/104/2 128/103/2
f 122/98/3 125/103/3 128/105/3
f 122/98/3 128/105/3 123/100/3
f 126/103/4 121/104/4 124/106/4
f 126/103/4 124/106/4 127/105/4
f 127/100/5 124/105/5 123/107/5
f 127/100/5 123/107/5 128/102/5
f 121/105/6 126/106/6 125/108/6
f 121/105/6 125/108/6 122/107/6
usemtl WL_Steel
f 129/109/1 130/110/1 131/111/1
f 129/109/1 131/111/1 132/112/1
f 133/110/2 134/113/2 135/114/2
f 133/110/2 135/114/2 136/111/2
f 130/112/3 133/111/3 136/115/3
f 130/112/3 136/115/3 131/116/3
f 134/111/4 129/114/4 132/117/4
f 134/111/4 132/117/4 135/115/4
f 135/118/5 132/119/5 131/120/5
f 135/118/5 131/120/5 136/121/5
f 129/119/6 134/122/6 133/123/6
f 129/119/6 133/123/6 130/120/6
g leg_l
usemtl WL_Robe
f 137/113/1 138/124/1 139/125/1
f 137/113/1 139/125/1 140/114/1
f 141/124/2 142/126/2 143/127/2
f 141/124/2 143/127/2 144/125/2
f 138/114/3 141/125/3 144/128/3
f 138/114/3 144/128/3 139/117/3
f 142/125/4 137/127/4 140/129/4
f 142/125/4 140/129/4 143/128/4
f 143/122/5 140/130/5 139/131/5
f 143/122/5 139/131/5 144/123/5
f 137/130/6 142/132/6 141/133/6
f 137/130/6 141/133/6 138/131/6
usemtl WL_Steel
f 145/126/1 146/134/1 147/135/1
f 145/126/1 147/135/1 148/127/1
f 149/134/2 150/136/2 151/137/2
f 149/134/2 151/137/2 152/135/2
f 146/127/3 149/135/3 152/138/3
f 146/127/3 152/138/3 147/129/3
f 150/135/4 145/137/4 148/139/4
f 150/135/4 148/139/4 151/138/4
f 151/132/5 148/140/5 147/141/5
f 151/132/5 147/141/5 152/133/5
f 145/140/6 150/142/6 149/143/6
f 145/140/6 149/143/6 146/141/6
usemtl WL_DarkSteel
f 153/136/1 154/144/1 155/145/1
f 153/136/1 155/145/1 156/137/1
f 157/144/2 158/146/2 159/147/2
f 157/144/2 159/147/2 160/145/2
f 154/137/3 157/145/3 160/148/3
f 154/137/3 160/148/3 155/139/3
f 158/145/4 153/147/4 156/149/4
f 158/145/4 156/149/4 159/148/4
f 159/142/5 156/150/5 155/151/5
f 159/142/5 155/151/5 160/143/5
f 153/150/6 158/152/6 157/153/6
f 153/150/6 157/153/6 154/151/6
g leg_r
usemtl WL_Robe
f 161/113/1 162/124/1 163/125/1
f 161/113/1 163/125/1 164/114/1
f 165/124/2 166/126/2 167/127/2
f 165/124/2 167/127/2 168/125/2
f 162/114/3 165/125/3 168/128/3
f 162/114/3 168/128/3 163/117/3
f 166/125/4 161/127/4 164/129/4
f 166/125/4 164/129/4 167/128/4
f 167/122/5 164/130/5 163/131/5
f 167/122/5 163/131/5 168/123/5
f 161/130/6 166/132/6 165/133/6
f 161/130/6 165/133/6 162/131/6
usemtl WL_Steel
f 169/126/1 170/134/1 171/135/1
f 169/126/1 171/135/1 172/127/1
f 173/134/2 174/136/2 175/137/2
f 173/134/2 175/137/2 176/135/2
f 170/127/3 173/135/3 176/138/3
f 170/127/3 176/138/3 171/129/3
f 174/135/4 169/137/4 172/139/4
f 174/135/4 172/139/4 175/138/4
f 175/132/5 172/140/5 171/141/5
f 175/132/5 171/141/5 176/133/5
f 169/140/6 174/142/6 173/143/6
f 169/140/6 173/143/6 170/141/6
usemtl WL_DarkSteel
f 177/136/1 178/144/1 179/145/1
f 177/136/1 179/145/1 180/137/1
f 181/144/2 182/146/2 183/147/2
f 181/144/2 183/147/2 184/145/2
f 178/137/3 181/145/3 184/148/3
f 178/137/3 184/148/3 179/139/3
f 182/145/4 177/147/4 180/149/4
f 182/145/4 180/149/4 183/148/4
f 183/142/5 180/150/5 179/151/5
f 183/142/5 179/151/5 184/143/5
f 177/150/6 182/152/6 181/153/6
f 177/150/6 181/153/6 178/151/6
