# 由 tools/gen_3d_models.py 程序化生成，请勿手改
# Generated by tools/gen_3d_models.py - do not edit by hand
# 顶点 Y 朝上；InnoVault 导入时自动翻成 Y 朝下（ObjAxisConvention.YUpToYDown）
# Vertices are Y-up; InnoVault flips to Y-down on import.
mtllib SalvagedSteelChestplate.mtl

# ---- 56 个顶点 / 56 positions ----
v -0.260000 -0.200000 0.160000
v 0.260000 -0.200000 0.160000
v 0.260000 0.320000 0.160000
v -0.260000 0.320000 0.160000
v 0.260000 -0.200000 -0.160000
v -0.260000 -0.200000 -0.160000
v -0.260000 0.320000 -0.160000
v 0.260000 0.320000 -0.160000
v -0.080000 0.020000 0.190000
v 0.080000 0.020000 0.190000
v 0.080000 0.180000 0.190000
v -0.080000 0.180000 0.190000
v 0.080000 0.020000 0.150000
v -0.080000 0.020000 0.150000
v -0.080000 0.180000 0.150000
v 0.080000 0.180000 0.150000
v -0.220000 0.290000 0.140000
v 0.220000 0.290000 0.140000
v 0.220000 0.370000 0.140000
v -0.220000 0.370000 0.140000
v 0.220000 0.290000 -0.140000
v -0.220000 0.290000 -0.140000
v -0.220000 0.370000 -0.140000
v 0.220000 0.370000 -0.140000
v -0.180000 -0.140000 -0.140000
v 0.180000 -0.140000 -0.140000
v 0.180000 0.260000 -0.140000
v -0.180000 0.260000 -0.140000
v 0.180000 -0.140000 -0.260000
v -0.180000 -0.140000 -0.260000
v -0.180000 0.260000 -0.260000
v 0.180000 0.260000 -0.260000
v -0.310000 -0.200000 0.140000
v -0.190000 -0.200000 0.140000
v -0.190000 0.120000 0.140000
v -0.310000 0.120000 0.140000
v -0.190000 -0.200000 -0.140000
v -0.310000 -0.200000 -0.140000
v -0.310000 0.120000 -0.140000
v -0.190000 0.120000 -0.140000
v 0.190000 -0.200000 0.140000
v 0.310000 -0.200000 0.140000
v 0.310000 0.120000 0.140000
v 0.190000 0.120000 0.140000
v 0.310000 -0.200000 -0.140000
v 0.190000 -0.200000 -0.140000
v 0.190000 0.120000 -0.140000
v 0.310000 0.120000 -0.140000
v -0.240000 -0.290000 0.150000
v 0.240000 -0.290000 0.150000
v 0.240000 -0.190000 0.150000
v -0.240000 -0.190000 0.150000
v 0.240000 -0.290000 -0.150000
v -0.240000 -0.290000 -0.150000
v -0.240000 -0.190000 -0.150000
v 0.240000 -0.190000 -0.150000

vt 0.000000 1.000000
vt 0.125000 1.000000
vt 0.125000 0.916667
vt 0.000000 0.916667
vt 0.250000 1.000000
vt 0.250000 0.916667
vt 0.125000 0.833333
vt 0.000000 0.833333
vt 0.250000 0.833333
vt 0.000000 0.833333
vt 0.125000 0.833333
vt 0.125000 0.750000
vt 0.000000 0.750000
vt 0.250000 0.833333
vt 0.250000 0.750000
vt 0.375000 1.000000
vt 0.375000 0.916667
vt 0.500000 1.000000
vt 0.500000 0.916667
vt 0.375000 0.833333
vt 0.500000 0.833333
vt 0.375000 0.833333
vt 0.375000 0.750000
vt 0.500000 0.833333
vt 0.500000 0.750000
vt 0.625000 1.000000
vt 0.625000 0.916667
vt 0.750000 1.000000
vt 0.750000 0.916667
vt 0.625000 0.833333
vt 0.750000 0.833333
vt 0.625000 0.833333
vt 0.625000 0.750000
vt 0.750000 0.833333
vt 0.750000 0.750000
vt 0.875000 1.000000
vt 0.875000 0.916667
vt 1.000000 1.000000
vt 1.000000 0.916667
vt 0.875000 0.833333
vt 1.000000 0.833333
vt 0.875000 0.833333
vt 0.875000 0.750000
vt 1.000000 0.833333
vt 1.000000 0.750000
vt 0.125000 0.666667
vt 0.000000 0.666667
vt 0.250000 0.666667
vt 0.125000 0.583333
vt 0.000000 0.583333
vt 0.250000 0.583333
vt 0.000000 0.583333
vt 0.125000 0.583333
vt 0.125000 0.500000
vt 0.000000 0.500000
vt 0.250000 0.583333
vt 0.250000 0.500000
vt 0.375000 0.666667
vt 0.500000 0.666667
vt 0.375000 0.583333
vt 0.500000 0.583333
vt 0.375000 0.583333
vt 0.375000 0.500000
vt 0.500000 0.583333
vt 0.500000 0.500000

vn 0.000000 0.000000 1.000000
vn 0.000000 0.000000 -1.000000
vn 1.000000 0.000000 0.000000
vn -1.000000 0.000000 0.000000
vn 0.000000 1.000000 0.000000
vn 0.000000 -1.000000 0.000000

g torso
usemtl WL_Steel
f 1/1/1 2/2/1 3/3/1
f 1/1/1 3/3/1 4/4/1
f 5/2/2 6/5/2 7/6/2
f 5/2/2 7/6/2 8/3/2
f 2/4/3 5/3/3 8/7/3
f 2/4/3 8/7/3 3/8/3
f 6/3/4 1/6/4 4/9/4
f 6/3/4 4/9/4 7/7/4
f 7/10/5 4/11/5 3/12/5
f 7/10/5 3/12/5 8/13/5
f 1/11/6 6/14/6 5/15/6
f 1/11/6 5/15/6 2/12/6
usemtl WL_Glow
f 9/5/1 10/16/1 11/17/1
f 9/5/1 11/17/1 12/6/1
f 13/16/2 14/18/2 15/19/2
f 13/16/2 15/19/2 16/17/2
f 10/6/3 13/17/3 16/20/3
f 10/6/3 16/20/3 11/9/3
f 14/17/4 9/19/4 12/21/4
f 14/17/4 12/21/4 15/20/4
f 15/14/5 12/22/5 11/23/5
f 15/14/5 11/23/5 16/15/5
f 9/22/6 14/24/6 13/25/6
f 9/22/6 13/25/6 10/23/6
usemtl WL_DarkSteel
f 17/18/1 18/26/1 19/27/1
f 17/18/1 19/27/1 20/19/1
f 21/26/2 22/28/2 23/29/2
f 21/26/2 23/29/2 24/27/2
f 18/19/3 21/27/3 24/30/3
f 18/19/3 24/30/3 19/21/3
f 22/27/4 17/29/4 20/31/4
f 22/27/4 20/31/4 23/30/4
f 23/24/5 20/32/5 19/33/5
f 23/24/5 19/33/5 24/25/5
f 17/32/6 22/34/6 21/35/6
f 17/32/6 21/35/6 18/33/6
usemtl WL_Accent
f 25/28/1 26/36/1 27/37/1
f 25/28/1 27/37/1 28/29/1
f 29/36/2 30/38/2 31/39/2
f 29/36/2 31/39/2 32/37/2
f 26/29/3 29/37/3 32/40/3
f 26/29/3 32/40/3 27/31/3
f 30/37/4 25/39/4 28/41/4
f 30/37/4 28/41/4 31/40/4
f 31/34/5 28/42/5 27/43/5
f 31/34/5 27/43/5 32/35/5
f 25/42/6 30/44/6 29/45/6
f 25/42/6 29/45/6 26/43/6
usemtl WL_DarkSteel
f 33/13/1 34/12/1 35/46/1
f 33/13/1 35/46/1 36/47/1
f 37/12/2 38/15/2 39/48/2
f 37/12/2 39/48/2 40/46/2
f 34/47/3 37/46/3 40/49/3
f 34/47/3 40/49/3 35/50/3
f 38/46/4 33/48/4 36/51/4
f 38/46/4 36/51/4 39/49/4
f 39/52/5 36/53/5 35/54/5
f 39/52/5 35/54/5 40/55/5
f 33/53/6 38/56/6 37/57/6
f 33/53/6 37/57/6 34/54/6
f 41/13/1 42/12/1 43/46/1
f 41/13/1 43/46/1 44/47/1
f 45/12/2 46/15/2 47/48/2
f 45/12/2 47/48/2 48/46/2
f 42/47/3 45/46/3 48/49/3
f 42/47/3 48/49/3 43/50/3
f 46/46/4 41/48/4 44/51/4
f 46/46/4 44/51/4 47/49/4
f 47/52/5 44/53/5 43/54/5
f 47/52/5 43/54/5 48/55/5
f 41/53/6 46/56/6 45/57/6
f 41/53/6 45/57/6 42/54/6
f 49/15/1 50/23/1 51/58/1
f 49/15/1 51/58/1 52/48/1
f 53/23/2 54/25/2 55/59/2
f 53/23/2 55/59/2 56/58/2
f 50/48/3 53/58/3 56/60/3
f 50/48/3 56/60/3 51/51/3
f 54/58/4 49/59/4 52/61/4
f 54/58/4 52/61/4 55/60/4
f 55/56/5 52/62/5 51/63/5
f 55/56/5 51/63/5 56/57/5
f 49/62/6 54/64/6 53/65/6
f 49/62/6 53/65/6 50/63/6
