# 由 tools/gen_3d_models.py 程序化生成，请勿手改
# Generated by tools/gen_3d_models.py - do not edit by hand
# 顶点 Y 朝上；InnoVault 导入时自动翻成 Y 朝下（ObjAxisConvention.YUpToYDown）
# Vertices are Y-up; InnoVault flips to Y-down on import.
mtllib SalvagedSteelGreaves.mtl

# ---- 56 个顶点 / 56 positions ----
v -0.190000 0.180000 0.140000
v 0.190000 0.180000 0.140000
v 0.190000 0.300000 0.140000
v -0.190000 0.300000 0.140000
v 0.190000 0.180000 -0.140000
v -0.190000 0.180000 -0.140000
v -0.190000 0.300000 -0.140000
v 0.190000 0.300000 -0.140000
v -0.190000 -0.100000 0.110000
v -0.010000 -0.100000 0.110000
v -0.010000 0.220000 0.110000
v -0.190000 0.220000 0.110000
v -0.010000 -0.100000 -0.110000
v -0.190000 -0.100000 -0.110000
v -0.190000 0.220000 -0.110000
v -0.010000 0.220000 -0.110000
v -0.180000 -0.380000 0.100000
v -0.020000 -0.380000 0.100000
v -0.020000 -0.060000 0.100000
v -0.180000 -0.060000 0.100000
v -0.020000 -0.380000 -0.100000
v -0.180000 -0.380000 -0.100000
v -0.180000 -0.060000 -0.100000
v -0.020000 -0.060000 -0.100000
v -0.190000 -0.470000 0.140000
v -0.010000 -0.470000 0.140000
v -0.010000 -0.370000 0.140000
v -0.190000 -0.370000 0.140000
v -0.010000 -0.470000 -0.120000
v -0.190000 -0.470000 -0.120000
v -0.190000 -0.370000 -0.120000
v -0.010000 -0.370000 -0.120000
v 0.010000 -0.100000 0.110000
v 0.190000 -0.100000 0.110000
v 0.190000 0.220000 0.110000
v 0.010000 0.220000 0.110000
v 0.190000 -0.100000 -0.110000
v 0.010000 -0.100000 -0.110000
v 0.010000 0.220000 -0.110000
v 0.190000 0.220000 -0.110000
v 0.020000 -0.380000 0.100000
v 0.180000 -0.380000 0.100000
v 0.180000 -0.060000 0.100000
v 0.020000 -0.060000 0.100000
v 0.180000 -0.380000 -0.100000
v 0.020000 -0.380000 -0.100000
v 0.020000 -0.060000 -0.100000
v 0.180000 -0.060000 -0.100000
v 0.010000 -0.470000 0.140000
v 0.190000 -0.470000 0.140000
v 0.190000 -0.370000 0.140000
v 0.010000 -0.370000 0.140000
v 0.190000 -0.470000 -0.120000
v 0.010000 -0.470000 -0.120000
v 0.010000 -0.370000 -0.120000
v 0.190000 -0.370000 -0.120000

vt 0.000000 1.000000
vt 0.125000 1.000000
vt 0.125000 0.916667
vt 0.000000 0.916667
vt 0.250000 1.000000
vt 0.250000 0.916667
vt 0.125000 0.833333
vt 0.000000 0.833333
vt 0.250000 0.833333
vt 0.000000 0.833333
vt 0.125000 0.833333
vt 0.125000 0.750000
vt 0.000000 0.750000
vt 0.250000 0.833333
vt 0.250000 0.750000
vt 0.375000 1.000000
vt 0.375000 0.916667
vt 0.500000 1.000000
vt 0.500000 0.916667
vt 0.375000 0.833333
vt 0.500000 0.833333
vt 0.375000 0.833333
vt 0.375000 0.750000
vt 0.500000 0.833333
vt 0.500000 0.750000
vt 0.625000 1.000000
vt 0.625000 0.916667
vt 0.750000 1.000000
vt 0.750000 0.916667
vt 0.625000 0.833333
vt 0.750000 0.833333
vt 0.625000 0.833333
vt 0.625000 0.750000
vt 0.750000 0.833333
vt 0.750000 0.750000
vt 0.875000 1.000000
vt 0.875000 0.916667
vt 1.000000 1.000000
vt 1.000000 0.916667
vt 0.875000 0.833333
vt 1.000000 0.833333
vt 0.875000 0.833333
vt 0.875000 0.750000
vt 1.000000 0.833333
vt 1.000000 0.750000

vn 0.000000 0.000000 1.000000
vn 0.000000 0.000000 -1.000000
vn 1.000000 0.000000 0.000000
vn -1.000000 0.000000 0.000000
vn 0.000000 1.000000 0.000000
vn 0.000000 -1.000000 0.000000

g hip
usemtl WL_DarkSteel
f 1/1/1 2/2/1 3/3/1
f 1/1/1 3/3/1 4/4/1
f 5/2/2 6/5/2 7/6/2
f 5/2/2 7/6/2 8/3/2
f 2/4/3 5/3/3 8/7/3
f 2/4/3 8/7/3 3/8/3
f 6/3/4 1/6/4 4/9/4
f 6/3/4 4/9/4 7/7/4
f 7/10/5 4/11/5 3/12/5
f 7/10/5 3/12/5 8/13/5
f 1/11/6 6/14/6 5/15/6
f 1/11/6 5/15/6 2/12/6
g leg_l
usemtl WL_Steel
f 9/5/1 10/16/1 11/17/1
f 9/5/1 11/17/1 12/6/1
f 13/16/2 14/18/2 15/19/2
f 13/16/2 15/19/2 16/17/2
f 10/6/3 13/17/3 16/20/3
f 10/6/3 16/20/3 11/9/3
f 14/17/4 9/19/4 12/21/4
f 14/17/4 12/21/4 15/20/4
f 15/14/5 12/22/5 11/23/5
f 15/14/5 11/23/5 16/15/5
f 9/22/6 14/24/6 13/25/6
f 9/22/6 13/25/6 10/23/6
f 17/18/1 18/26/1 19/27/1
f 17/18/1 19/27/1 20/19/1
f 21/26/2 22/28/2 23/29/2
f 21/26/2 23/29/2 24/27/2
f 18/19/3 21/27/3 24/30/3
f 18/19/3 24/30/3 19/21/3
f 22/27/4 17/29/4 20/31/4
f 22/27/4 20/31/4 23/30/4
f 23/24/5 20/32/5 19/33/5
f 23/24/5 19/33/5 24/25/5
f 17/32/6 22/34/6 21/35/6
f 17/32/6 21/35/6 18/33/6
usemtl WL_Accent
f 25/28/1 26/36/1 27/37/1
f 25/28/1 27/37/1 28/29/1
f 29/36/2 30/38/2 31/39/2
f 29/36/2 31/39/2 32/37/2
f 26/29/3 29/37/3 32/40/3
f 26/29/3 32/40/3 27/31/3
f 30/37/4 25/39/4 28/41/4
f 30/37/4 28/41/4 31/40/4
f 31/34/5 28/42/5 27/43/5
f 31/34/5 27/43/5 32/35/5
f 25/42/6 30/44/6 29/45/6
f 25/42/6 29/45/6 26/43/6
g leg_r
usemtl WL_Steel
f 33/5/1 34/16/1 35/17/1
f 33/5/1 35/17/1 36/6/1
f 37/16/2 38/18/2 39/19/2
f 37/16/2 39/19/2 40/17/2
f 34/6/3 37/17/3 40/20/3
f 34/6/3 40/20/3 35/9/3
f 38/17/4 33/19/4 36/21/4
f 38/17/4 36/21/4 39/20/4
f 39/14/5 36/22/5 35/23/5
f 39/14/5 35/23/5 40/15/5
f 33/22/6 38/24/6 37/25/6
f 33/22/6 37/25/6 34/23/6
f 41/18/1 42/26/1 43/27/1
f 41/18/1 43/27/1 44/19/1
f 45/26/2 46/28/2 47/29/2
f 45/26/2 47/29/2 48/27/2
f 42/19/3 45/27/3 48/30/3
f 42/19/3 48/30/3 43/21/3
f 46/27/4 41/29/4 44/31/4
f 46/27/4 44/31/4 47/30/4
f 47/24/5 44/32/5 43/33/5
f 47/24/5 43/33/5 48/25/5
f 41/32/6 46/34/6 45/35/6
f 41/32/6 45/35/6 42/33/6
usemtl WL_Accent
f 49/28/1 50/36/1 51/37/1
f 49/28/1 51/37/1 52/29/1
f 53/36/2 54/38/2 55/39/2
f 53/36/2 55/39/2 56/37/2
f 50/29/3 53/37/3 56/40/3
f 50/29/3 56/40/3 51/31/3
f 54/37/4 49/39/4 52/41/4
f 54/37/4 52/41/4 55/40/4
f 55/34/5 52/42/5 51/43/5
f 55/34/5 51/43/5 56/35/5
f 49/42/6 54/44/6 53/45/6
f 49/42/6 53/45/6 50/43/6
