# 由 tools/gen_3d_models.py 程序化生成，请勿手改
# Generated by tools/gen_3d_models.py - do not edit by hand
# 顶点 Y 朝上；InnoVault 导入时自动翻成 Y 朝下（ObjAxisConvention.YUpToYDown）
# Vertices are Y-up; InnoVault flips to Y-down on import.
mtllib Wasteland3DProbe.mtl

# ---- 88 个顶点 / 88 positions ----
v -0.200000 1.180000 0.180000
v 0.200000 1.180000 0.180000
v 0.200000 1.500000 0.180000
v -0.200000 1.500000 0.180000
v 0.200000 1.180000 -0.180000
v -0.200000 1.180000 -0.180000
v -0.200000 1.500000 -0.180000
v 0.200000 1.500000 -0.180000
v -0.150000 1.280000 0.210000
v 0.150000 1.280000 0.210000
v 0.150000 1.400000 0.210000
v -0.150000 1.400000 0.210000
v 0.150000 1.280000 0.170000
v -0.150000 1.280000 0.170000
v -0.150000 1.400000 0.170000
v 0.150000 1.400000 0.170000
v -0.060000 1.110000 0.060000
v 0.060000 1.110000 0.060000
v 0.060000 1.190000 0.060000
v -0.060000 1.190000 0.060000
v 0.060000 1.110000 -0.060000
v -0.060000 1.110000 -0.060000
v -0.060000 1.190000 -0.060000
v 0.060000 1.190000 -0.060000
v -0.240000 0.640000 0.150000
v 0.240000 0.640000 0.150000
v 0.240000 1.120000 0.150000
v -0.240000 1.120000 0.150000
v 0.240000 0.640000 -0.150000
v -0.240000 0.640000 -0.150000
v -0.240000 1.120000 -0.150000
v 0.240000 1.120000 -0.150000
v -0.070000 0.810000 0.180000
v 0.070000 0.810000 0.180000
v 0.070000 0.950000 0.180000
v -0.070000 0.950000 0.180000
v 0.070000 0.810000 0.140000
v -0.070000 0.810000 0.140000
v -0.070000 0.950000 0.140000
v 0.070000 0.950000 0.140000
v -0.170000 0.740000 -0.130000
v 0.170000 0.740000 -0.130000
v 0.170000 1.100000 -0.130000
v -0.170000 1.100000 -0.130000
v 0.170000 0.740000 -0.250000
v -0.170000 0.740000 -0.250000
v -0.170000 1.100000 -0.250000
v 0.170000 1.100000 -0.250000
v -0.190000 0.560000 0.130000
v 0.190000 0.560000 0.130000
v 0.190000 0.680000 0.130000
v -0.190000 0.680000 0.130000
v 0.190000 0.560000 -0.130000
v -0.190000 0.560000 -0.130000
v -0.190000 0.680000 -0.130000
v 0.190000 0.680000 -0.130000
v -0.390000 0.640000 0.090000
v -0.250000 0.640000 0.090000
v -0.250000 1.080000 0.090000
v -0.390000 1.080000 0.090000
v -0.250000 0.640000 -0.090000
v -0.390000 0.640000 -0.090000
v -0.390000 1.080000 -0.090000
v -0.250000 1.080000 -0.090000
v 0.250000 0.640000 0.090000
v 0.390000 0.640000 0.090000
v 0.390000 1.080000 0.090000
v 0.250000 1.080000 0.090000
v 0.390000 0.640000 -0.090000
v 0.250000 0.640000 -0.090000
v 0.250000 1.080000 -0.090000
v 0.390000 1.080000 -0.090000
v -0.400000 0.540000 0.100000
v -0.240000 0.540000 0.100000
v -0.240000 0.660000 0.100000
v -0.400000 0.660000 0.100000
v -0.240000 0.540000 -0.100000
v -0.400000 0.540000 -0.100000
v -0.400000 0.660000 -0.100000
v -0.240000 0.660000 -0.100000
v 0.240000 0.540000 0.100000
v 0.400000 0.540000 0.100000
v 0.400000 0.660000 0.100000
v 0.240000 0.660000 0.100000
v 0.400000 0.540000 -0.100000
v 0.240000 0.540000 -0.100000
v 0.240000 0.660000 -0.100000
v 0.400000 0.660000 -0.100000

vt 0.000000 1.000000
vt 0.125000 1.000000
vt 0.125000 0.916667
vt 0.000000 0.916667
vt 0.250000 1.000000
vt 0.250000 0.916667
vt 0.125000 0.833333
vt 0.000000 0.833333
vt 0.250000 0.833333
vt 0.000000 0.833333
vt 0.125000 0.833333
vt 0.125000 0.750000
vt 0.000000 0.750000
vt 0.250000 0.833333
vt 0.250000 0.750000
vt 0.375000 1.000000
vt 0.375000 0.916667
vt 0.500000 1.000000
vt 0.500000 0.916667
vt 0.375000 0.833333
vt 0.500000 0.833333
vt 0.375000 0.833333
vt 0.375000 0.750000
vt 0.500000 0.833333
vt 0.500000 0.750000
vt 0.625000 1.000000
vt 0.625000 0.916667
vt 0.750000 1.000000
vt 0.750000 0.916667
vt 0.625000 0.833333
vt 0.750000 0.833333
vt 0.625000 0.833333
vt 0.625000 0.750000
vt 0.750000 0.833333
vt 0.750000 0.750000
vt 0.125000 0.666667
vt 0.000000 0.666667
vt 0.250000 0.666667
vt 0.125000 0.583333
vt 0.000000 0.583333
vt 0.250000 0.583333
vt 0.000000 0.583333
vt 0.125000 0.583333
vt 0.125000 0.500000
vt 0.000000 0.500000
vt 0.250000 0.583333
vt 0.250000 0.500000
vt 0.375000 0.666667
vt 0.500000 0.666667
vt 0.375000 0.583333
vt 0.500000 0.583333
vt 0.375000 0.583333
vt 0.375000 0.500000
vt 0.500000 0.583333
vt 0.500000 0.500000
vt 0.625000 0.666667
vt 0.750000 0.666667
vt 0.625000 0.583333
vt 0.750000 0.583333
vt 0.625000 0.583333
vt 0.625000 0.500000
vt 0.750000 0.583333
vt 0.750000 0.500000
vt 0.875000 0.750000
vt 0.875000 0.666667
vt 1.000000 0.750000
vt 1.000000 0.666667
vt 0.875000 0.583333
vt 1.000000 0.583333
vt 0.875000 0.583333
vt 0.875000 0.500000
vt 1.000000 0.583333
vt 1.000000 0.500000
vt 0.125000 0.416667
vt 0.000000 0.416667
vt 0.250000 0.416667
vt 0.125000 0.333333
vt 0.000000 0.333333
vt 0.250000 0.333333
vt 0.125000 0.250000
vt 0.000000 0.250000
vt 0.250000 0.250000
vt 0.375000 0.416667
vt 0.500000 0.416667
vt 0.375000 0.333333
vt 0.500000 0.333333
vt 0.375000 0.250000
vt 0.500000 0.250000

vn 0.000000 0.000000 1.000000
vn 0.000000 0.000000 -1.000000
vn 1.000000 0.000000 0.000000
vn -1.000000 0.000000 0.000000
vn 0.000000 1.000000 0.000000
vn 0.000000 -1.000000 0.000000

g head
usemtl WL_Steel
f 1/1/1 2/2/1 3/3/1
f 1/1/1 3/3/1 4/4/1
f 5/2/2 6/5/2 7/6/2
f 5/2/2 7/6/2 8/3/2
f 2/4/3 5/3/3 8/7/3
f 2/4/3 8/7/3 3/8/3
f 6/3/4 1/6/4 4/9/4
f 6/3/4 4/9/4 7/7/4
f 7/10/5 4/11/5 3/12/5
f 7/10/5 3/12/5 8/13/5
f 1/11/6 6/14/6 5/15/6
f 1/11/6 5/15/6 2/12/6
usemtl WL_Glow
f 9/5/1 10/16/1 11/17/1
f 9/5/1 11/17/1 12/6/1
f 13/16/2 14/18/2 15/19/2
f 13/16/2 15/19/2 16/17/2
f 10/6/3 13/17/3 16/20/3
f 10/6/3 16/20/3 11/9/3
f 14/17/4 9/19/4 12/21/4
f 14/17/4 12/21/4 15/20/4
f 15/14/5 12/22/5 11/23/5
f 15/14/5 11/23/5 16/15/5
f 9/22/6 14/24/6 13/25/6
f 9/22/6 13/25/6 10/23/6
usemtl WL_DarkSteel
f 17/18/1 18/26/1 19/27/1
f 17/18/1 19/27/1 20/19/1
f 21/26/2 22/28/2 23/29/2
f 21/26/2 23/29/2 24/27/2
f 18/19/3 21/27/3 24/30/3
f 18/19/3 24/30/3 19/21/3
f 22/27/4 17/29/4 20/31/4
f 22/27/4 20/31/4 23/30/4
f 23/24/5 20/32/5 19/33/5
f 23/24/5 19/33/5 24/25/5
f 17/32/6 22/34/6 21/35/6
f 17/32/6 21/35/6 18/33/6
g torso
usemtl WL_Steel
f 25/13/1 26/12/1 27/36/1
f 25/13/1 27/36/1 28/37/1
f 29/12/2 30/15/2 31/38/2
f 29/12/2 31/38/2 32/36/2
f 26/37/3 29/36/3 32/39/3
f 26/37/3 32/39/3 27/40/3
f 30/36/4 25/38/4 28/41/4
f 30/36/4 28/41/4 31/39/4
f 31/42/5 28/43/5 27/44/5
f 31/42/5 27/44/5 32/45/5
f 25/43/6 30/46/6 29/47/6
f 25/43/6 29/47/6 26/44/6
usemtl WL_Glow
f 33/15/1 34/23/1 35/48/1
f 33/15/1 35/48/1 36/38/1
f 37/23/2 38/25/2 39/49/2
f 37/23/2 39/49/2 40/48/2
f 34/38/3 37/48/3 40/50/3
f 34/38/3 40/50/3 35/41/3
f 38/48/4 33/49/4 36/51/4
f 38/48/4 36/51/4 39/50/4
f 39/46/5 36/52/5 35/53/5
f 39/46/5 35/53/5 40/47/5
f 33/52/6 38/54/6 37/55/6
f 33/52/6 37/55/6 34/53/6
usemtl WL_Accent
f 41/25/1 42/33/1 43/56/1
f 41/25/1 43/56/1 44/49/1
f 45/33/2 46/35/2 47/57/2
f 45/33/2 47/57/2 48/56/2
f 42/49/3 45/56/3 48/58/3
f 42/49/3 48/58/3 43/51/3
f 46/56/4 41/57/4 44/59/4
f 46/56/4 44/59/4 47/58/4
f 47/54/5 44/60/5 43/61/5
f 47/54/5 43/61/5 48/55/5
f 41/60/6 46/62/6 45/63/6
f 41/60/6 45/63/6 42/61/6
usemtl WL_DarkSteel
f 49/35/1 50/64/1 51/65/1
f 49/35/1 51/65/1 52/57/1
f 53/64/2 54/66/2 55/67/2
f 53/64/2 55/67/2 56/65/2
f 50/57/3 53/65/3 56/68/3
f 50/57/3 56/68/3 51/59/3
f 54/65/4 49/67/4 52/69/4
f 54/65/4 52/69/4 55/68/4
f 55/62/5 52/70/5 51/71/5
f 55/62/5 51/71/5 56/63/5
f 49/70/6 54/72/6 53/73/6
f 49/70/6 53/73/6 50/71/6
g arm_l
f 57/45/1 58/44/1 59/74/1
f 57/45/1 59/74/1 60/75/1
f 61/44/2 62/47/2 63/76/2
f 61/44/2 63/76/2 64/74/2
f 58/75/3 61/74/3 64/77/3
f 58/75/3 64/77/3 59/78/3
f 62/74/4 57/76/4 60/79/4
f 62/74/4 60/79/4 63/77/4
f 63/78/5 60/77/5 59/80/5
f 63/78/5 59/80/5 64/81/5
f 57/77/6 62/79/6 61/82/6
f 57/77/6 61/82/6 58/80/6
g arm_r
f 65/45/1 66/44/1 67/74/1
f 65/45/1 67/74/1 68/75/1
f 69/44/2 70/47/2 71/76/2
f 69/44/2 71/76/2 72/74/2
f 66/75/3 69/74/3 72/77/3
f 66/75/3 72/77/3 67/78/3
f 70/74/4 65/76/4 68/79/4
f 70/74/4 68/79/4 71/77/4
f 71/78/5 68/77/5 67/80/5
f 71/78/5 67/80/5 72/81/5
f 65/77/6 70/79/6 69/82/6
f 65/77/6 69/82/6 66/80/6
g arm_l
usemtl WL_Steel
f 73/47/1 74/53/1 75/83/1
f 73/47/1 75/83/1 76/76/1
f 77/53/2 78/55/2 79/84/2
f 77/53/2 79/84/2 80/83/2
f 74/76/3 77/83/3 80/85/3
f 74/76/3 80/85/3 75/79/3
f 78/83/4 73/84/4 76/86/4
f 78/83/4 76/86/4 79/85/4
f 79/79/5 76/85/5 75/87/5
f 79/79/5 75/87/5 80/82/5
f 73/85/6 78/86/6 77/88/6
f 73/85/6 77/88/6 74/87/6
g arm_r
f 81/47/1 82/53/1 83/83/1
f 81/47/1 83/83/1 84/76/1
f 85/53/2 86/55/2 87/84/2
f 85/53/2 87/84/2 88/83/2
f 82/76/3 85/83/3 88/85/3
f 82/76/3 88/85/3 83/79/3
f 86/83/4 81/84/4 84/86/4
f 86/83/4 84/86/4 87/85/4
f 87/79/5 84/85/5 83/87/5
f 87/79/5 83/87/5 88/82/5
f 81/85/6 86/86/6 85/88/6
f 81/85/6 85/88/6 82/87/6
